HIERARCHY
ROOT Hips
{
	OFFSET -0.001795 -0.223333 0.028219
	CHANNELS 6 Xposition Yposition Zposition Zrotation Yrotation Xrotation 
	JOINT LeftUpLeg
	{
		OFFSET 0.069520 -0.091406 -0.006815
		CHANNELS 3 Zrotation Yrotation Xrotation
		JOINT LeftLeg
		{
			OFFSET 0.034277 -0.375199 -0.004496
			CHANNELS 3 Zrotation Yrotation Xrotation
			JOINT LeftFoot
			{
				OFFSET -0.013596 -0.397961 -0.043693
				CHANNELS 3 Zrotation Yrotation Xrotation
				JOINT LeftToe
				{
					OFFSET 0.026358 -0.055791 0.119288
					CHANNELS 3 Zrotation Yrotation Xrotation
					End Site
					{
						OFFSET 0.000000 0.000000 0.000000
					}
				}
			}
		}
	}
	JOINT RightUpLeg
	{
		OFFSET -0.067670 -0.090522 -0.004320
		CHANNELS 3 Zrotation Yrotation Xrotation
		JOINT RightLeg
		{
			OFFSET -0.038290 -0.382569 -0.008850
			CHANNELS 3 Zrotation Yrotation Xrotation
			JOINT RightFoot
			{
				OFFSET 0.015774 -0.398415 -0.042312
				CHANNELS 3 Zrotation Yrotation Xrotation
				JOINT RightToe
				{
					OFFSET -0.025372 -0.048144 0.123348
					CHANNELS 3 Zrotation Yrotation Xrotation
					End Site
					{
						OFFSET 0.000000 0.000000 0.000000
					}
				}
			}
		}
	}
	JOINT Spine
	{
		OFFSET -0.002533 0.108963 -0.026696
		CHANNELS 3 Zrotation Yrotation Xrotation
		JOINT Spine1
		{
			OFFSET 0.005487 0.135180 0.001092
			CHANNELS 3 Zrotation Yrotation Xrotation
			JOINT Spine2
			{
				OFFSET 0.001457 0.052922 0.025425
				CHANNELS 3 Zrotation Yrotation Xrotation
				JOINT Neck
				{
					OFFSET -0.002778 0.213870 -0.042857
					CHANNELS 3 Zrotation Yrotation Xrotation
					JOINT Head
					{
						OFFSET 0.005152 0.064970 0.051349
						CHANNELS 3 Zrotation Yrotation Xrotation
						End Site
						{
							OFFSET 0.000000 0.000000 0.000000
						}
					}
				}
				JOINT LeftShoulder
				{
					OFFSET 0.078845 0.121749 -0.034090
					CHANNELS 3 Zrotation Yrotation Xrotation
					JOINT LeftArm
					{
						OFFSET 0.090977 0.030469 -0.008868
						CHANNELS 3 Zrotation Yrotation Xrotation
						JOINT LeftForeArm
						{
							OFFSET 0.259612 -0.012772 -0.027456
							CHANNELS 3 Zrotation Yrotation Xrotation
							JOINT LeftHand
							{
								OFFSET 0.249234 0.008986 -0.001171
								CHANNELS 3 Zrotation Yrotation Xrotation
								End Site
								{
									OFFSET 0.000000 0.000000 0.000000
								}
							}
						}
					}
				}
				JOINT RightShoulder
				{
					OFFSET -0.081759 0.118833 -0.038615
					CHANNELS 3 Zrotation Yrotation Xrotation
					JOINT RightArm
					{
						OFFSET -0.096012 0.032551 -0.009143
						CHANNELS 3 Zrotation Yrotation Xrotation
						JOINT RightForeArm
						{
							OFFSET -0.253742 -0.013329 -0.021401
							CHANNELS 3 Zrotation Yrotation Xrotation
							JOINT RightHand
							{
								OFFSET -0.255298 0.007772 -0.005559
								CHANNELS 3 Zrotation Yrotation Xrotation
								End Site
								{
									OFFSET 0.000000 0.000000 0.000000
								}
							}
						}
					}
				}
			}
		}
	}
}
MOTION
Frames: 12
Frame Time: 0.050000
2.656065 0.931759 0.945183 7.443656 -7.134865 -0.079859 -1.616223 -2.061896 -21.906229 5.453671 -1.677534 15.092666 -12.535666 -13.572487 17.906298 0.000000 0.000000 0.000000 8.558329 -1.197510 5.766490 -13.300059 5.852014 23.906979 20.996607 28.627361 19.264901 0.000000 0.000000 0.000000 -5.426304 0.277294 11.718063 0.776781 -0.329591 -3.155350 3.090532 0.703215 5.808076 4.670318 -2.629376 -11.200131 0.000000 0.000000 0.000000 -28.228972 10.771335 -8.415248 -42.720606 3.642707 -6.622287 -19.790386 -37.812104 8.855600 0.000000 0.000000 0.000000 20.067006 -5.022913 -5.617161 41.776666 -3.682884 -4.966795 25.648127 38.639675 9.464379 0.000000 0.000000 0.000000 
2.657469 0.928113 0.997736 7.721433 -12.264128 -0.781845 -3.065891 -1.981358 -19.665599 7.545981 -2.293622 19.823596 -8.306112 -9.898003 13.451876 0.000000 0.000000 0.000000 5.482947 -0.505433 2.302988 -7.615485 6.837506 36.329125 17.445702 20.838261 19.796661 0.000000 0.000000 0.000000 -7.087527 0.513855 10.405837 1.805209 -0.828845 -2.936322 2.628761 -1.697725 6.741562 4.065038 -2.761122 -9.716851 0.000000 0.000000 0.000000 -27.089014 10.560451 -6.430978 -42.908986 2.204315 -6.684235 -17.975138 -37.848767 8.860598 0.000000 0.000000 0.000000 19.249858 -3.920893 -6.079065 42.794851 -6.074569 -5.680900 25.365916 37.371641 8.320746 0.000000 0.000000 0.000000 
2.655620 0.915066 1.045316 8.167205 -19.004866 -2.545420 -2.784625 -1.569399 -16.603138 6.436333 -1.538770 25.388998 -4.791893 -7.866477 5.144741 0.000000 0.000000 0.000000 2.307760 0.456926 -5.053673 0.854174 8.134004 54.688081 10.589721 11.105460 15.914607 0.000000 0.000000 0.000000 -7.746647 0.825283 12.216623 1.624791 -0.798568 -2.424766 3.017980 -5.015099 5.721000 2.424776 -2.083750 -9.237548 0.000000 0.000000 0.000000 -28.253497 11.013457 -4.654329 -40.754184 0.474824 -6.490197 -15.447208 -39.089625 8.976315 0.000000 0.000000 0.000000 19.370175 -1.885421 -6.807954 42.305174 -7.282308 -5.516224 23.401077 37.646721 6.868804 0.000000 0.000000 0.000000 
2.649317 0.903061 1.084005 8.119444 -24.932757 -4.488313 -2.275476 -1.191244 -12.754663 5.299633 -0.325440 28.565888 -2.170176 -4.462798 -0.129291 0.000000 0.000000 0.000000 0.290228 1.495107 -13.291201 10.358600 6.029806 65.032591 -1.943082 -5.323543 0.891160 0.000000 0.000000 0.000000 -7.685859 1.139159 14.408804 1.417039 -0.734800 -2.041876 2.536154 -7.989707 6.675625 -0.191337 -0.852762 -12.717372 0.000000 0.000000 0.000000 -27.797959 8.811137 -1.166359 -39.177920 -4.002506 -5.697374 -9.322365 -40.179513 7.411218 0.000000 0.000000 0.000000 20.305470 -0.274930 -7.892558 42.284262 -7.442001 -5.191014 21.665722 38.961607 5.876163 0.000000 0.000000 0.000000 
2.637077 0.897628 1.116464 7.727004 -30.209886 -5.302816 -1.128617 -0.678642 -7.220884 3.005748 0.848475 25.712286 0.199890 0.451739 -2.811599 0.000000 0.000000 0.000000 -1.020520 2.745291 -20.788206 15.388014 3.463843 60.378332 -9.044745 -17.617587 -16.143276 0.000000 0.000000 0.000000 -7.054139 1.320731 15.758171 1.725941 -0.856760 -1.521349 2.046772 -11.192666 5.997350 -1.699357 -0.395412 -14.533902 0.000000 0.000000 0.000000 -25.903339 7.779736 0.977957 -39.810244 -6.907226 -5.093978 -4.394224 -41.343351 6.269716 0.000000 0.000000 0.000000 19.785422 1.709872 -8.249430 44.181532 -7.237442 -5.152034 19.432945 37.255757 4.287604 0.000000 0.000000 0.000000 
2.618520 0.900106 1.145936 6.935341 -36.356705 -5.226164 -0.061299 -0.109973 -1.637500 1.544026 1.491459 22.355528 1.459995 3.869125 -3.077028 0.000000 0.000000 0.000000 -0.636512 3.887931 -24.880622 12.592286 3.460445 44.636941 -11.572304 -23.200177 -12.705455 0.000000 0.000000 0.000000 -5.897459 1.385378 16.515188 1.160469 -0.640766 -2.139191 1.652717 -12.799852 7.238895 -4.077505 0.498253 -16.406904 0.000000 0.000000 0.000000 -23.002627 7.040197 2.134744 -41.763569 -8.953235 -4.335219 -0.772146 -45.607413 6.209101 0.000000 0.000000 0.000000 20.477455 2.917147 -9.349053 44.540579 -8.352041 -5.368114 18.711478 36.702773 3.620960 0.000000 0.000000 0.000000 
2.592769 0.904789 1.173325 6.153540 -41.176110 -3.889503 1.353713 0.435867 2.383417 0.013266 1.895742 19.157941 1.684294 4.442614 -0.643804 0.000000 0.000000 0.000000 -0.885851 4.822330 -27.681718 8.798622 2.799700 31.566741 -10.637618 -23.639603 0.055193 0.000000 0.000000 0.000000 -4.471186 1.325932 17.010929 0.572500 -0.437996 -2.978292 1.959143 -14.073539 6.498689 -4.428843 0.467423 -16.532196 0.000000 0.000000 0.000000 -21.854026 8.085753 1.979264 -41.799625 -11.545606 -3.282367 0.992041 -47.137427 6.223714 0.000000 0.000000 0.000000 18.858833 3.144347 -9.539439 47.218192 -9.599032 -6.484918 17.452850 36.914469 2.707836 0.000000 0.000000 0.000000 
2.559424 0.909943 1.199321 5.119011 -45.148876 -2.133521 1.917571 0.821779 4.936099 0.915337 1.788910 18.877738 1.077987 2.720000 2.636411 0.000000 0.000000 0.000000 1.071800 5.587934 -28.414806 6.772061 2.909904 27.955230 -9.595186 -24.407644 8.182737 0.000000 0.000000 0.000000 -4.316871 1.315565 16.395204 1.958354 -0.803586 -1.411986 2.418634 -13.724775 3.589427 -2.994154 -0.284232 -16.794630 0.000000 0.000000 0.000000 -23.107127 8.408364 2.166195 -40.733002 -10.689661 -3.485801 -1.410754 -52.496331 8.396129 0.000000 0.000000 0.000000 18.248158 2.866117 -9.389619 47.880428 -10.221838 -7.062056 14.882695 36.404312 1.981660 0.000000 0.000000 0.000000 
2.518201 0.913288 1.224083 3.015793 -48.177584 0.525933 4.447729 1.006373 4.756392 2.278701 2.421075 23.034677 -2.495150 -4.375616 8.389752 0.000000 0.000000 0.000000 3.666644 5.400753 -26.260766 6.419687 2.859566 26.219529 -7.955822 -21.625994 7.757421 0.000000 0.000000 0.000000 -2.345040 0.707972 14.199384 1.339480 -0.351107 -0.383372 3.715871 -12.640495 1.207125 -3.194301 0.086945 -15.752438 0.000000 0.000000 0.000000 -24.496461 8.710902 2.429721 -40.671284 -9.982594 -3.827331 -4.708759 -54.336095 10.561701 0.000000 0.000000 0.000000 16.723514 2.391611 -8.873171 49.408006 -11.488183 -8.131867 13.109762 34.265074 1.270329 0.000000 0.000000 0.000000 
2.473895 0.913275 1.247117 1.710297 -51.652728 1.401046 6.338838 1.032392 1.756915 5.993262 4.990904 35.458606 -6.844815 -9.723585 15.791181 0.000000 0.000000 0.000000 5.785041 4.477129 -22.490917 6.903001 3.006668 25.950262 -7.146531 -18.010872 4.165406 0.000000 0.000000 0.000000 -1.402482 0.594534 13.919056 0.755003 -0.160819 -1.148079 4.365254 -11.081496 1.733782 -3.998720 0.433362 -16.041051 0.000000 0.000000 0.000000 -24.747733 9.803264 2.006110 -41.787958 -9.534796 -4.091385 -9.361688 -56.126163 14.032623 0.000000 0.000000 0.000000 15.735764 2.446598 -8.548869 49.226118 -11.141431 -8.114792 14.600964 32.090260 1.483270 0.000000 0.000000 0.000000 
2.430861 0.913861 1.267959 0.722296 -55.347444 1.501734 6.357334 0.993224 -4.862132 16.609532 5.914263 50.910064 -15.096166 -15.206072 26.580453 0.000000 0.000000 0.000000 8.502059 2.956522 -16.686877 4.347564 3.145486 23.453978 -6.177346 -12.435642 0.286166 0.000000 0.000000 0.000000 -0.067677 0.527077 14.671852 -0.819254 0.250958 -2.893947 4.825076 -9.322976 3.637794 -4.061761 0.340503 -16.064332 0.000000 0.000000 0.000000 -26.348937 11.268976 1.802805 -42.550554 -10.144081 -4.454868 -10.801730 -56.000365 15.201316 0.000000 0.000000 0.000000 16.177988 3.298809 -8.799378 49.090490 -10.181226 -7.548222 12.489801 30.108290 0.896549 0.000000 0.000000 0.000000 
2.389177 0.915078 1.287493 0.355288 -59.522779 1.242810 4.068649 0.962705 -11.603063 26.903167 4.274504 59.469369 -17.312468 -15.228257 30.037041 0.000000 0.000000 0.000000 10.375916 1.654080 -11.413958 1.318067 3.304224 21.333683 -5.001610 -6.765023 -2.088651 0.000000 0.000000 0.000000 0.249317 0.704624 15.716994 -1.152330 0.259369 -3.834036 4.710637 -5.999370 5.220789 -3.786918 -0.123888 -18.412474 0.000000 0.000000 0.000000 -28.044013 10.647039 2.738910 -43.144216 -10.546616 -4.865991 -7.827111 -54.956725 13.027532 0.000000 0.000000 0.000000 16.178573 3.643191 -8.574642 49.319810 -8.543717 -6.960827 11.648073 29.903339 0.736519 0.000000 0.000000 0.000000 
